# File created by Blade
# Date/Time:  Tue Sep 30 19:11:10 2014
#---------------------------------------------------------
:version 1.10
:name HOM
:units
  mass 1.0
  length 1.000000
  angle deg
:documentation
     Acclaim Skeleton File
:root
   axis xyz
   order TX TY TZ RX RY RZ
   position 0.000000 0.000000 0.000000
   orientation 0 0 0
:bonedata
   begin
      id 1
      name Spine_dum
      direction 0.000000 1.000000 0.000000
      length 7.508948
      axis 0.0 0.0 0.0 xyz
   end
   begin
      id 2
      name LeftUpLeg_dum
      direction 1.000000 0.000000 0.000000
      length 3.000560
      axis 0.0 0.0 0.0 xyz
   end
   begin
      id 3
      name RightUpLeg_dum
      direction -1.000000 0.000000 0.000000
      length 3.000560
      axis 0.0 0.0 0.0 xyz
   end
   begin
      id 4
      name Spine
      direction 0.000000 1.000000 0.000000
      length 0.000000
      axis 0.0 0.0 0.0 xyz
      dof rx ry rz
   end
   begin
      id 5
      name Spine_dum1
      direction 0.000000 1.000000 0.000000
      length 13.861154
      axis 0.0 0.0 0.0 xyz
   end
   begin
      id 6
      name Spine_dum2
      direction 0.000000 1.000000 0.000000
      length 8.204781
      axis 0.0 0.0 0.0 xyz
   end
   begin
      id 7
      name Spine_dum3
      direction 0.000000 1.000000 0.000000
      length 8.204781
      axis 0.0 0.0 0.0 xyz
   end
   begin
      id 8
      name Head
      direction 0.000000 1.000000 0.000000
      length 4.527550
      axis 0.0 0.0 0.0 xyz
      dof rx ry rz
   end
   begin
      id 9
      name LeftShoulder
      direction 1.000000 0.000000 0.000000
      length 6.635956
      axis 0.0 0.0 -90.0 xyz
      dof rx ry rz
   end
   begin
      id 10
      name LeftArm
      direction 1.000000 0.000000 0.000000
      length 10.274218
      axis 0.0 0.0 -90.0 xyz
      dof rx ry rz
   end
   begin
      id 11
      name LeftForeArm
      direction 1.000000 0.000000 0.000000
      length 8.522147
      axis 0.0 0.0 -90.0 xyz
      dof ry rz rx
   end
   begin
      id 12
      name LeftHand
      direction 0.000000 0.000000 0.000000
      length 0.000000
      axis 0.0 0.0 -90.0 xyz
      dof rx ry rz
   end
   begin
      id 13
      name LeftHand_dum1
      direction 0.000000 0.000000 0.000000
      length 0.000000
      axis 0.0 0.0 -90.0 xyz
   end
   begin
      id 14
      name LeftHand_dum2
      direction 1.000000 0.000000 0.000000
      length 3.937000
      axis 0.0 0.0 -90.0 xyz
   end
   begin
      id 15
      name LeftHandThumb1
      direction 0.000000 0.000000 1.000000
      length 3.937000
      axis 0.0 0.0 -90.0 xyz
      dof rx rz ry
   end
   begin
      id 16
      name RightShoulder
      direction -1.000000 0.000000 0.000000
      length 6.635956
      axis 0.0 0.0 90.0 xyz
      dof rx ry rz
   end
   begin
      id 17
      name RightArm
      direction -1.000000 0.000000 0.000000
      length 10.274218
      axis 0.0 0.0 90.0 xyz
      dof rx ry rz
   end
   begin
      id 18
      name RightForeArm
      direction -1.000000 0.000000 0.000000
      length 8.522147
      axis 0.0 0.0 90.0 xyz
      dof ry rz rx
   end
   begin
      id 19
      name RightHand
      direction 0.000000 0.000000 0.000000
      length 0.000000
      axis 0.0 0.0 90.0 xyz
      dof rx ry rz
   end
   begin
      id 20
      name RightHand_dum1
      direction 0.000000 0.000000 0.000000
      length 0.000000
      axis 0.0 0.0 90.0 xyz
   end
   begin
      id 21
      name RightHand_dum2
      direction -1.000000 0.000000 0.000000
      length 3.937000
      axis 0.0 0.0 90.0 xyz
   end
   begin
      id 22
      name RightHandThumb1
      direction 0.000000 0.000000 1.000000
      length 3.937000
      axis 0.0 0.0 90.0 xyz
      dof rx rz ry
   end
   begin
      id 23
      name LeftUpLeg
      direction 0.000000 -1.000000 0.000000
      length 16.490845
      axis 0.0 0.0 0.0 xyz
      dof rx ry rz
   end
   begin
      id 24
      name LeftLeg
      direction 0.000000 -1.000000 0.000000
      length 14.556576
      axis 0.0 0.0 0.0 xyz
      dof rx ry rz
   end
   begin
      id 25
      name LeftFoot
      direction 0.000000 -0.258819 0.965926
      length 4.831116
      axis 15.0 0.0 0.0 xyz
      dof rx ry rz
   end
   begin
      id 26
      name LeftToeBase
      direction 0.000000 0.000000 1.000000
      length 2.952750
      axis 0.0 0.0 0.0 xyz
      dof rx ry rz
   end
   begin
      id 27
      name RightUpLeg
      direction 0.000000 -1.000000 0.000000
      length 16.490845
      axis 0.0 0.0 0.0 xyz
      dof rx ry rz
   end
   begin
      id 28
      name RightLeg
      direction 0.000000 -1.000000 0.000000
      length 14.556576
      axis 0.0 0.0 0.0 xyz
      dof rx ry rz
   end
   begin
      id 29
      name RightFoot
      direction 0.000000 -0.258819 0.965926
      length 4.831116
      axis 15.0 0.0 0.0 xyz
      dof rx ry rz
   end
   begin
      id 30
      name RightToeBase
      direction 0.000000 0.000000 1.000000
      length 2.952750
      axis 0.0 0.0 0.0 xyz
      dof rx ry rz
   end
:hierarchy
   begin
      root Spine_dum LeftUpLeg_dum RightUpLeg_dum
      Spine_dum Spine
      LeftUpLeg_dum LeftUpLeg
      RightUpLeg_dum RightUpLeg
      Spine Spine_dum1 Spine_dum2 Spine_dum3
      Spine_dum1 Head
      Spine_dum2 LeftShoulder
      Spine_dum3 RightShoulder
      LeftShoulder LeftArm
      LeftArm LeftForeArm
      LeftForeArm LeftHand
      LeftHand LeftHand_dum1 LeftHand_dum2
      LeftHand_dum1 LeftHandThumb1
      RightShoulder RightArm
      RightArm RightForeArm
      RightForeArm RightHand
      RightHand RightHand_dum1 RightHand_dum2
      RightHand_dum1 RightHandThumb1
      LeftUpLeg LeftLeg
      LeftLeg LeftFoot
      LeftFoot LeftToeBase
      RightUpLeg RightLeg
      RightLeg RightFoot
      RightFoot RightToeBase
   end

# File created by Blade
# Date/Time:  Wed Sep 24 20:26:02 2014
# Frame Rate: 120.000 fps
#------------------------------------------------------
:FULLY-SPECIFIED
:DEGREES
83
root -8.818240 32.706952 -3.522632 17.970213 -77.768981 -6.820758
Spine -12.630069 4.192540 -0.181695
Head -6.295144 -3.670031 10.941494
LeftShoulder -16.304528 18.463555 24.406453
LeftArm 19.083198 -26.273538 -34.338789
LeftForeArm 7.539320 -0.000000 13.506830
LeftHand -29.238438 -0.000000 1.110167
LeftHandThumb1 -26.253704 0.000000 33.147579
RightShoulder -20.490793 12.964512 -38.345564
RightArm -17.287294 9.404701 33.525416
RightForeArm -28.902092 -0.000000 18.292876
RightHand -13.494314 -0.000000 -0.500417
RightHandThumb1 -24.326973 -0.000000 -32.862282
LeftUpLeg -6.604237 3.235073 2.025556
LeftLeg -2.344779 -0.000000 0.000000
LeftFoot -8.832445 2.344976 -16.468813
LeftToeBase 6.981209 -0.000000 -0.000000
RightUpLeg -5.459683 -8.941000 -1.324111
RightLeg 1.798398 -0.000000 -0.000000
RightFoot -10.826701 -8.278955 -1.657305
RightToeBase -0.448295 -0.000000 0.000000
84
root -8.816146 32.707037 -3.521388 17.993260 -77.788775 -6.848670
Spine -12.638810 4.208329 -0.180299
Head -6.191047 -3.688822 10.938451
LeftShoulder -16.300329 18.466213 24.397197
LeftArm 19.103179 -26.305314 -34.389215
LeftForeArm 7.564941 -0.000000 13.463097
LeftHand -29.181033 0.000000 0.958817
LeftHandThumb1 -26.253704 0.000000 33.147579
RightShoulder -20.485937 12.963129 -38.347977
RightArm -17.283702 9.403437 33.566331
RightForeArm -28.866967 0.000000 18.330996
RightHand -13.764026 0.000000 -0.401133
RightHandThumb1 -24.326973 -0.000000 -32.862282
LeftUpLeg -6.597060 3.225560 2.025354
LeftLeg -2.356601 -0.000000 0.000000
LeftFoot -8.838346 2.367511 -16.472326
LeftToeBase 7.082608 -0.000000 -0.000000
RightUpLeg -5.461876 -8.922873 -1.327683
RightLeg 1.817173 -0.000000 -0.000000
RightFoot -10.851373 -8.205298 -1.620509
RightToeBase -0.369186 -0.000000 0.000000
85
root -8.813876 32.707107 -3.520336 18.017670 -77.809195 -6.876012
Spine -12.649797 4.213618 -0.180945
Head -6.082669 -3.710619 10.939859
LeftShoulder -16.305623 18.482669 24.392325
LeftArm 19.115757 -26.311820 -34.430649
LeftForeArm 7.553245 -0.000000 13.456551
LeftHand -29.105680 -0.000000 0.917462
LeftHandThumb1 -26.253704 0.000000 33.147579
RightShoulder -20.478593 12.948520 -38.338254
RightArm -17.266749 9.492371 33.578924
RightForeArm -28.994755 0.000000 18.317418
RightHand -13.551585 -0.000000 -0.293657
RightHandThumb1 -24.326973 -0.000000 -32.862282
LeftUpLeg -6.591041 3.211157 2.027731
LeftLeg -2.356078 -0.000000 0.000000
LeftFoot -8.858968 2.429312 -16.461010
LeftToeBase 7.040507 -0.000000 -0.000000
RightUpLeg -5.466642 -8.926285 -1.327498
RightLeg 1.824928 -0.000000 -0.000000
RightFoot -10.875002 -8.166009 -1.581879
RightToeBase -0.301463 -0.000000 0.000000
86
root -8.812053 32.707388 -3.519902 18.053459 -77.829003 -6.920691
Spine -12.654008 4.232876 -0.183470
Head -5.979065 -3.746502 10.948107
LeftShoulder -16.278037 18.447246 24.382255
LeftArm 19.048711 -26.249653 -34.379677
LeftForeArm 7.471078 -0.000000 13.456087
LeftHand -29.131209 0.000000 0.874504
LeftHandThumb1 -26.253704 0.000000 33.147579
RightShoulder -20.476875 12.955306 -38.325315
RightArm -17.254273 9.502450 33.600881
RightForeArm -28.914769 -0.000000 18.308061
RightHand -13.716612 -0.000000 -0.268195
RightHandThumb1 -24.326973 -0.000000 -32.862282
LeftUpLeg -6.580525 3.247105 2.027801
LeftLeg -2.369832 -0.000000 0.000000
LeftFoot -8.838250 2.378749 -16.467159
LeftToeBase 7.127623 -0.000000 -0.000000
RightUpLeg -5.460659 -8.929364 -1.322550
RightLeg 1.810746 -0.000000 -0.000000
RightFoot -10.835896 -8.165768 -1.641949
RightToeBase -0.376729 -0.000000 0.000000
87
root -8.810510 32.707348 -3.519369 18.102633 -77.853549 -6.971840
Spine -12.667272 4.246530 -0.183187
Head -5.884879 -3.791847 10.941299
LeftShoulder -16.286658 18.465490 24.359274
LeftArm 19.051939 -26.243688 -34.378498
LeftForeArm 7.440404 0.000000 13.455819
LeftHand -29.125257 -0.000000 0.938979
LeftHandThumb1 -26.253704 0.000000 33.147579
RightShoulder -20.470263 12.959203 -38.323514
RightArm -17.248758 9.506558 33.629738
RightForeArm -28.941163 -0.000000 18.287731
RightHand -13.570813 -0.000000 -0.354381
RightHandThumb1 -24.326973 -0.000000 -32.862282
LeftUpLeg -6.576479 3.263876 2.030169
LeftLeg -2.371176 -0.000000 0.000000
LeftFoot -8.850602 2.393243 -16.452187
LeftToeBase 7.028403 -0.000000 -0.000000
RightUpLeg -5.463181 -8.925985 -1.318663
RightLeg 1.809272 -0.000000 -0.000000
RightFoot -10.835958 -8.129861 -1.634384
RightToeBase -0.345798 -0.000000 0.000000
88
root -8.807615 32.707841 -3.517329 18.067897 -77.879896 -6.933220
Spine -12.680482 4.261401 -0.206050
Head -5.799731 -3.841640 10.940092
LeftShoulder -16.294334 18.485373 24.342193
LeftArm 19.080077 -26.300636 -34.406345
LeftForeArm 7.497523 0.000000 13.452371
LeftHand -29.102943 0.000000 0.905777
LeftHandThumb1 -26.253704 0.000000 33.147579
RightShoulder -20.473091 12.957496 -38.307713
RightArm -17.237404 9.485096 33.653338
RightForeArm -28.926159 0.000000 18.292668
RightHand -13.581681 -0.000000 -0.384459
RightHandThumb1 -24.326973 -0.000000 -32.862282
LeftUpLeg -6.580001 3.254135 2.011958
LeftLeg -2.362037 -0.000000 0.000000
LeftFoot -8.829190 2.441685 -16.454778
LeftToeBase 6.955675 -0.000000 -0.000000
RightUpLeg -5.475337 -8.917438 -1.336316
RightLeg 1.815455 -0.000000 -0.000000
RightFoot -10.837893 -8.108858 -1.629407
RightToeBase -0.321566 -0.000000 0.000000
